<?xml version="1.0" encoding="UTF-8"?>
<svg width="410" height="410" clip-rule="evenodd" fill-rule="evenodd" stroke-linejoin="round" stroke-miterlimit="1.414" aria-label="Logo" version="1.1" viewBox="0 0 410 410" xmlns="http://www.w3.org/2000/svg">
 <defs>
  <clipPath id="clipPath13">
   <path d="m61.364 128.1h282.9v160.72h-282.9z" fill="#fff" stroke-width="5.0979"/>
  </clipPath>
 </defs>
 <path d="m362.14 260.98v-122.66c0-15.645-8.285-30.12-21.774-38.046l-113.57-66.726c-16.805-9.873-37.69-9.65-54.28 0.58l-96.142 59.286c-19.81 12.215-31.87 33.823-31.87 57.095v120.06c0 19.93 10.58 38.37 27.792 48.43l104.72 61.21c13.925 8.14 31.113 8.31 45.204 0.47l115.94-64.58c14.798-8.25 23.973-23.86 23.973-40.8v-14.34z" fill="#0594cb"/>
 <path d="m200.28 12.801h0.278l0.247 3e-3h0.027l0.25 3e-3h0.027l0.25 4e-3h0.02l0.25 6e-3h0.03l0.24 7e-3h0.03l0.24 8e-3h0.03l0.25 0.01h0.03l0.25 0.01h0.03l0.25 0.01 0.02 2e-3 0.25 0.01 0.02 3e-3 0.25 0.013h0.03l0.25 0.014 0.02 2e-3 0.25 0.014h0.02l0.25 0.017 0.02 2e-3 0.25 0.017h0.03l0.25 0.02h0.02l0.24 0.02 0.03 3e-3 0.25 0.018 0.03 3e-3 0.25 0.02 0.03 3e-3 0.24 0.02h0.02l0.25 0.02h0.03l0.25 0.02h0.03l0.25 0.02h0.03l0.24 0.02h0.02l0.25 0.03h0.03l0.24 0.03h0.03l0.25 0.03h0.03l0.25 0.03h0.03l0.25 0.03h0.03l0.24 0.03h0.02l0.24 0.03h0.03l0.24 0.03h0.03l0.24 0.03h0.03l0.25 0.03h0.02l0.25 0.03h0.03l0.25 0.04h0.03l0.24 0.04h0.02l0.25 0.04h0.03l0.24 0.04h0.03l0.25 0.04h0.03l0.25 0.04h0.03l0.24 0.05h0.02l0.25 0.05h0.03l0.24 0.04h0.03l0.24 0.05 0.03 0.01 0.25 0.05 0.03 0.01 0.25 0.05 0.03 0.01 0.24 0.05h0.02l0.24 0.05h0.02l0.25 0.05h0.03l0.24 0.05h0.03l0.24 0.06h0.03l0.24 0.06 0.02 0.01 0.24 0.06 0.03 0.01 0.24 0.06h0.03l0.24 0.06 0.02 0.01 0.24 0.06 0.02 0.01 0.24 0.07h0.03l0.24 0.06 0.03 0.01 0.24 0.06h0.03l0.24 0.06h0.02l0.24 0.06 0.03 0.01 0.24 0.06 0.03 0.01 0.24 0.07 0.02 0.01 0.24 0.07h0.03l0.24 0.07 0.03 0.01 0.24 0.07 0.02 0.01 0.24 0.07 0.03 0.01 0.24 0.07 0.03 0.01 0.24 0.07 0.03 0.01 0.24 0.07 0.03 0.01 0.24 0.07 0.02 0.01 0.24 0.08 0.02 0.01 0.24 0.08h0.03l0.51 0.17 0.02 0.01 0.24 0.08 0.02 0.01 1.05 0.35 0.02 0.01 0.27 0.09 0.24 0.09 0.03 0.01 0.24 0.09 0.03 0.01 0.23 0.09 0.03 0.01 0.24 0.09 0.03 0.01 0.23 0.09 0.03 0.01 0.24 0.09 0.03 0.01 0.23 0.1 0.03 0.01 0.23 0.1 0.03 0.01 0.23 0.1 0.02 0.01 0.24 0.09 0.02 0.01 0.23 0.1 0.03 0.01 0.24 0.1 0.02 0.01 0.23 0.1 0.02 0.01 0.23 0.1 0.03 0.01 0.24 0.1 0.03 0.01 0.23 0.1 0.02 0.01 0.23 0.11 0.03 0.01 0.23 0.1 0.02 0.01 0.23 0.11 0.02 0.01 0.23 0.11 0.03 0.01 0.24 0.1 0.02 0.02 0.23 0.11 0.02 0.01 0.23 0.11 0.02 0.01 0.23 0.11 0.03 0.01 0.23 0.11 0.03 0.01 0.23 0.11 0.02 0.01 0.23 0.11 0.03 0.01 0.22 0.12 0.02 0.02 0.23 0.12 0.03 0.01 0.23 0.12 0.02 0.01 0.23 0.12 0.03 0.01 0.23 0.12 0.03 0.02 0.22 0.12 0.03 0.01 0.23 0.12 0.02 0.01 0.22 0.12 0.02 0.01 0.23 0.12 0.02 0.01 0.22 0.12 0.03 0.01 0.22 0.13 0.02 0.01 0.22 0.13 0.02 0.02 0.22 0.13 0.02 0.02 0.22 0.13 0.03 0.02 0.23 0.13 113.7 66.88 0.18 0.11 0.03 0.01 0.18 0.11 0.03 0.02 0.18 0.11 0.02 0.02 0.18 0.11 0.02 0.01 0.18 0.11 0.02 0.02 0.18 0.11 0.02 0.02 0.18 0.11 0.02 0.01 0.17 0.11 0.02 0.01 0.18 0.11 0.02 0.01 0.17 0.11 0.02 0.01 0.17 0.11 0.02 0.01 0.17 0.12 0.03 0.01 0.17 0.12 0.02 0.01 0.21 0.14 0.34 0.23 0.05 0.03 0.35 0.24 0.05 0.03 0.34 0.24 0.04 0.03 0.34 0.24 0.05 0.03 0.34 0.24 0.05 0.03 0.33 0.25 0.04 0.03 0.33 0.25 0.04 0.03 0.33 0.25 0.04 0.03 0.33 0.25 0.04 0.04 0.33 0.26 0.04 0.04 0.32 0.26 0.04 0.03 0.32 0.26 0.04 0.03 0.32 0.26 0.04 0.04 0.32 0.27 0.04 0.03 0.32 0.27 0.04 0.03 0.31 0.27 0.04 0.03 0.31 0.27 0.04 0.03 0.31 0.27 0.04 0.03 0.3 0.28 0.04 0.03 0.3 0.28 0.04 0.04 0.3 0.28 0.04 0.04 0.29 0.28 0.04 0.04 0.3 0.29 0.99 0.99 0.03 0.04 0.29 0.3 0.04 0.04 0.28 0.3 0.04 0.04 0.28 0.3 0.04 0.04 0.28 0.3 0.04 0.04 0.28 0.31 0.03 0.04 0.27 0.31 0.03 0.04 0.27 0.31 0.04 0.04 0.27 0.31 0.03 0.04 0.26 0.31 0.03 0.04 0.27 0.31 0.04 0.04 0.26 0.31 0.03 0.05 0.26 0.32 0.03 0.04 0.25 0.32 0.03 0.05 0.25 0.32 0.03 0.04 0.25 0.33 0.03 0.04 0.24 0.33 0.04 0.04 0.24 0.33 0.03 0.04 0.24 0.33 0.03 0.04 0.24 0.33 0.03 0.04 0.23 0.34 0.03 0.05 0.23 0.34 0.03 0.05 0.23 0.34 0.03 0.04 0.23 0.34 0.03 0.05 0.22 0.34 0.03 0.05 0.22 0.34 0.03 0.05 0.22 0.35 0.03 0.05 0.22 0.35 0.03 0.05 0.21 0.34 0.24 0.4 0.02 0.05 0.21 0.35 0.03 0.04 0.2 0.35 0.03 0.05 0.21 0.36 0.03 0.05 0.2 0.36 0.03 0.04 0.19 0.36 0.02 0.05 0.2 0.36 0.02 0.05 0.19 0.36 0.03 0.05 0.18 0.36 0.02 0.05 0.19 0.37 0.02 0.04 0.18 0.37 0.02 0.05 0.18 0.37 0.02 0.05 0.17 0.37 0.02 0.05 0.18 0.37 0.02 0.05 0.17 0.37 0.03 0.05 0.16 0.37 0.02 0.05 0.16 0.38 0.02 0.05 0.16 0.38 0.03 0.05 0.16 0.38 0.02 0.05 0.16 0.38 0.02 0.05 0.15 0.38 0.02 0.05 0.15 0.38 0.02 0.05 0.14 0.38 0.02 0.05 0.14 0.38 0.02 0.05 0.14 0.39 0.02 0.05 0.13 0.39 0.02 0.05 0.13 0.39 0.02 0.05 0.13 0.39 0.02 0.05 0.13 0.39 0.02 0.05 0.12 0.39 0.01 0.05 0.12 0.39 0.02 0.05 0.12 0.39 0.01 0.05 0.11 0.4 0.02 0.05 0.11 0.39 0.02 0.05 0.11 0.4 0.02 0.05 0.1 0.4 0.01 0.05 0.1 0.4 0.01 0.05 0.1 0.4 0.01 0.05 0.1 0.4 0.01 0.06 0.09 0.4 0.02 0.05 0.09 0.41 0.01 0.05 0.09 0.4 0.01 0.05 0.09 0.41 0.01 0.05 0.08 0.41 0.01 0.05 0.08 0.41 0.01 0.06 0.07 0.41v0.06l0.07 0.41 0.01 0.05 0.06 0.41 0.01 0.06 0.06 0.41 0.01 0.06 0.06 0.41 0.01 0.05 0.06 0.41 0.01 0.06 0.05 0.42 0.01 0.06 0.05 0.41v0.06l0.05 0.41 0.01 0.05 0.04 0.42 0.01 0.05 0.04 0.42v0.06l0.04 0.42 0.01 0.05 0.03 0.41 0.01 0.06 0.03 0.42v0.06l0.02 0.41v0.04l0.01 0.21v0.02l0.01 0.21v0.03l0.01 0.21v0.03l0.01 0.21v0.03l0.01 0.21v0.03l0.01 0.21v0.27l0.01 0.21v139.28l-0.01 0.22v0.02l-0.01 0.22v0.28l-0.01 0.22v0.03l-0.01 0.23v0.02l-0.01 0.22v0.03l-0.01 0.22v0.03l-0.01 0.22-0.01 0.03-0.01 0.22v0.03l-0.01 0.23v0.03l-0.01 0.22v0.03l-0.02 0.22-0.01 0.03-0.02 0.23v0.03l-0.01 0.23v0.03l-0.02 0.23v0.03l-0.01 0.22v0.03l-0.02 0.23v0.03l-0.02 0.22-0.01 0.03-0.02 0.22v0.03l-0.02 0.23v0.02l-0.02 0.22-0.01 0.03-0.02 0.22-0.01 0.03-0.02 0.22v0.03l-0.03 0.23v0.03l-0.03 0.22v0.03l-0.03 0.22v0.03l-0.03 0.22-0.01 0.03-0.03 0.22-0.01 0.03-0.03 0.22-0.01 0.03-0.03 0.22v0.03l-0.03 0.22v0.03l-0.03 0.22v0.02l-0.03 0.22v0.03l-0.03 0.22v0.03l-0.03 0.22-0.01 0.03-0.03 0.22-0.01 0.03-0.04 0.22v0.02l-0.04 0.22v0.03l-0.03 0.22v0.02l-0.04 0.22-0.01 0.03-0.04 0.22v0.03l-0.04 0.22-0.01 0.03-0.04 0.21-0.01 0.03-0.05 0.22v0.03l-0.05 0.22-0.01 0.02-0.04 0.22-0.01 0.03-0.04 0.21-0.01 0.03-0.05 0.22-0.01 0.02-0.05 0.22v0.03l-0.05 0.22v0.02l-0.05 0.22-0.01 0.03-0.05 0.21-0.01 0.02-0.05 0.22-0.01 0.03-0.05 0.22-0.01 0.03-0.06 0.21-0.01 0.03-0.05 0.21-0.01 0.02-0.05 0.22v0.03l-0.06 0.22-0.01 0.03-0.05 0.21-0.01 0.03-0.06 0.21v0.03l-0.06 0.21-0.01 0.03-0.06 0.21v0.03l-0.06 0.21v0.03l-0.06 0.21-0.01 0.03-0.06 0.21-0.01 0.03-0.06 0.21-0.01 0.02-0.06 0.21-0.32 0.96-0.01 0.02-0.23 0.69-0.01 0.02-0.07 0.21-0.01 0.02-0.24 0.72-0.08 0.21-0.16 0.48-0.01 0.02-0.08 0.21-0.01 0.02-0.08 0.21-0.01 0.03-0.08 0.2-0.01 0.03-0.08 0.21-0.01 0.02-0.08 0.2-0.01 0.03-0.08 0.21-0.01 0.03-0.08 0.2-0.01 0.03-0.08 0.2-0.01 0.03-0.08 0.2-0.01 0.03-0.08 0.2-0.01 0.03-0.08 0.2-0.01 0.03-0.09 0.21-0.01 0.03-0.09 0.2-0.01 0.03-0.09 0.2-0.01 0.02-0.09 0.2-0.01 0.03-0.09 0.2-0.01 0.03-0.09 0.2-0.01 0.02-0.09 0.2-0.01 0.02-0.09 0.2-0.02 0.03-0.09 0.2-0.01 0.02-0.1 0.19-0.01 0.03-0.09 0.2-0.02 0.02-0.09 0.2-0.12 0.24-0.09 0.19-0.11 0.22-0.02 0.03-0.1 0.19-0.01 0.03-0.1 0.19-0.12 0.24-0.1 0.19-0.11 0.22-0.01 0.03-0.1 0.19-0.02 0.03-0.11 0.19-0.01 0.02-0.11 0.2-0.01 0.02-0.1 0.19-0.01 0.03-0.11 0.19-0.12 0.24-0.11 0.19-0.01 0.03-0.11 0.19-0.02 0.03-0.1 0.19-0.02 0.03-0.11 0.19-0.02 0.02-0.11 0.19-0.01 0.02-0.11 0.19-0.02 0.02-0.11 0.19-0.02 0.02-0.11 0.19-0.01 0.03-0.11 0.19-0.01 0.02-0.11 0.19-0.01 0.02-0.11 0.19-0.01 0.03-0.12 0.19-0.02 0.02-0.12 0.19-0.02 0.02-0.14 0.21-0.12 0.19-0.02 0.03-0.11 0.18-0.01 0.02-0.12 0.19-0.01 0.02-0.12 0.18-0.02 0.02-0.12 0.18-0.01 0.03-0.12 0.18-0.01 0.03-0.12 0.18-0.01 0.02-0.12 0.18-0.01 0.02-0.12 0.18-0.01 0.02-0.12 0.18-0.01 0.03-0.13 0.18-0.02 0.02-0.12 0.18-0.02 0.02-0.14 0.21-0.13 0.18-0.02 0.02-0.13 0.18-0.01 0.02-0.13 0.18-0.02 0.02-0.13 0.18-0.01 0.02-0.13 0.18-0.01 0.02-0.13 0.18-0.02 0.02-0.14 0.17-0.02 0.02-0.13 0.18-0.02 0.02-0.13 0.17-0.02 0.02-0.13 0.18-0.02 0.02-0.14 0.18-0.02 0.02-0.13 0.17-0.02 0.02-0.13 0.17-0.02 0.02-0.13 0.17-0.02 0.02-0.14 0.17-0.02 0.02-0.14 0.17-0.01 0.02-0.14 0.17-0.02 0.02-0.14 0.17-0.02 0.02-0.14 0.17-0.02 0.02-0.14 0.17-0.01 0.02-0.14 0.17-0.02 0.02-0.14 0.17-0.01 0.02-0.14 0.17-0.01 0.02-0.14 0.17-0.02 0.02-0.15 0.17-0.02 0.02-0.15 0.16-0.01 0.02-0.15 0.16-0.02 0.02-0.14 0.16-0.02 0.02-0.15 0.16-0.02 0.02-0.15 0.16-0.02 0.02-0.15 0.16-0.02 0.02-0.15 0.16-0.02 0.02-0.15 0.16-0.02 0.02-0.15 0.16-0.02 0.02-0.15 0.16-0.2 0.2-0.15 0.16-0.02 0.02-0.15 0.16-0.01 0.02-0.18 0.18-0.15 0.16-0.02 0.02-0.15 0.16-0.2 0.2-0.16 0.15-0.02 0.02-0.16 0.15-0.2 0.2-0.16 0.15-0.02 0.02-0.16 0.15-0.02 0.02-0.16 0.15-0.02 0.02-0.16 0.15-0.02 0.02-0.17 0.16-0.02 0.02-0.16 0.15-0.02 0.02-0.16 0.15-0.02 0.02-0.16 0.15-0.02 0.02-0.17 0.15-0.02 0.02-0.17 0.15-0.02 0.02-0.17 0.14-0.02 0.02-0.17 0.15-0.02 0.01-0.17 0.14-0.02 0.02-0.17 0.15-0.02 0.02-0.17 0.14-0.02 0.02-0.17 0.14-0.02 0.02-0.17 0.14-0.02 0.02-0.17 0.15-0.02 0.01-0.17 0.14-0.02 0.02-0.17 0.14-0.02 0.02-0.17 0.14-0.02 0.02-0.17 0.14-0.02 0.02-0.17 0.14-0.02 0.01-0.17 0.14-0.02 0.02-0.17 0.14-0.02 0.02-0.18 0.14-0.03 0.02-0.18 0.14-0.03 0.02-0.18 0.14-0.02 0.02-0.17 0.14-0.03 0.01-0.18 0.14-0.02 0.01-0.18 0.14-0.03 0.02-0.18 0.13-0.02 0.02-0.18 0.13-0.02 0.01-0.18 0.13-0.02 0.01-0.18 0.13-0.03 0.01-0.18 0.14-0.03 0.01-0.18 0.13-0.03 0.01-0.18 0.13-0.02 0.02-0.19 0.13-0.02 0.01-0.19 0.13-0.03 0.02-0.19 0.12-0.02 0.02-0.18 0.13-0.02 0.02-0.18 0.12-0.02 0.02-0.19 0.12-0.02 0.02-0.18 0.12-0.02 0.01-0.19 0.13-0.03 0.02-0.19 0.12-0.02 0.01-0.19 0.12-0.02 0.01-0.19 0.12-0.03 0.01-0.19 0.12-0.02 0.01-0.19 0.12-0.03 0.02-0.19 0.12-0.02 0.02-0.19 0.11-0.02 0.02-0.19 0.12-0.02 0.01-0.19 0.12-0.02 0.01-0.19 0.12-0.02 0.01-0.19 0.12-0.03 0.02-0.2 0.12-0.02 0.01-0.19 0.12-0.02 0.01-0.2 0.12-0.02 0.02-0.2 0.11-0.03 0.01-0.2 0.12-0.02 0.01-0.19 0.11-0.02 0.01-115.97 64.59-0.01 0.01-0.18 0.1-0.02 0.01-0.19 0.1-0.03 0.01-0.19 0.1-0.02 0.02-0.19 0.11-0.03 0.01-0.19 0.11-0.02 0.02-0.19 0.1-0.03 0.02-0.19 0.1-0.24 0.12-0.19 0.1-0.02 0.01-0.19 0.09-0.02 0.02-0.2 0.09-0.03 0.01-0.19 0.1-0.24 0.12-0.19 0.09-0.03 0.02-0.2 0.09-0.02 0.01-0.19 0.09-0.03 0.01-0.2 0.09-0.03 0.01-0.19 0.09-0.02 0.01-0.2 0.09-0.02 0.01-0.2 0.09-0.03 0.01-0.2 0.09-0.03 0.01-0.19 0.09-0.02 0.01-0.19 0.09-0.02 0.01-0.2 0.09-0.02 0.01-0.19 0.08-0.03 0.01-0.2 0.09-0.03 0.01-0.2 0.09-0.02 0.01-0.2 0.08-0.03 0.01-0.2 0.08-0.02 0.01-0.2 0.08-0.03 0.01-0.2 0.08-0.02 0.01-0.2 0.08-0.02 0.01-0.2 0.08-0.03 0.01-0.2 0.07-0.02 0.01-0.19 0.08-0.02 0.01-0.2 0.08-0.02 0.01-0.2 0.07-0.03 0.01-0.2 0.07-0.03 0.01-0.2 0.08-0.02 0.01-0.2 0.07-0.03 0.01-0.2 0.08-0.02 0.01-0.2 0.07-0.02 0.01-0.2 0.07-0.02 0.01-0.2 0.07-0.03 0.01-0.2 0.06-0.02 0.01-0.2 0.07-0.03 0.01-0.2 0.07-0.03 0.01-0.2 0.07-0.03 0.01-0.2 0.07-0.03 0.01-0.21 0.06-0.24 0.08h-0.02l-0.21 0.06-0.04 0.01-0.4 0.12-0.05 0.01-0.41 0.12-0.06 0.01-0.4 0.11-0.06 0.01-0.41 0.11-0.05 0.02-0.41 0.11-0.05 0.01-0.41 0.1-0.05 0.01-0.41 0.1-0.06 0.02-0.41 0.1-0.06 0.01-0.41 0.1-0.06 0.01-0.41 0.09-0.05 0.01-0.41 0.09-0.05 0.01-0.41 0.09-0.05 0.01-0.42 0.08-0.05 0.01-0.41 0.07-0.05 0.01-0.42 0.08-0.05 0.01-0.42 0.07-0.05 0.01-0.42 0.07-0.05 0.01-0.41 0.06h-0.06l-0.41 0.06-0.05 0.01-0.41 0.06h-0.05l-0.41 0.06-0.05 0.01-0.42 0.05-0.05 0.01-0.42 0.05-0.05 0.01-0.42 0.05h-0.05l-0.42 0.04-0.06 0.01-0.42 0.04h-0.05l-0.42 0.04h-0.05l-0.42 0.03-0.05 0.01-0.42 0.02-0.06 0.01-0.42 0.02h-0.06l-0.42 0.02-0.05 5e-3 -0.42 0.02h0.01l-0.42 0.01h-0.05l-0.42 0.02-0.42 4e-3h-0.06l-0.42 0.01h-1l-0.42-0.01h-0.06l-0.42-0.01h-0.05l-0.42-0.013-0.05-0.01-0.42-0.01h-0.05l-0.42-0.02h-0.05l-0.42-0.02-0.05-0.01-0.42-0.03h-0.05l-0.42-0.03h-0.05l-0.42-0.03-0.05-0.01-0.42-0.04h-0.05l-0.42-0.04-0.05-0.01-0.42-0.05-0.05-0.01-0.42-0.05-0.05-0.01-0.41-0.05h-0.05l-0.42-0.05h-0.05l-0.42-0.06-0.05-0.01-0.42-0.06-0.05-0.01-0.41-0.06-0.05-0.01-0.41-0.06-0.05-0.01-0.42-0.07-0.05-0.01-0.42-0.07-0.05-0.01-0.41-0.08-0.05-0.01-0.41-0.08-0.05-0.01-0.41-0.08-0.06-0.01-0.41-0.08-0.05-0.01-0.41-0.09-0.05-0.01-0.42-0.09-0.05-0.01-0.41-0.1-0.05-0.01-0.41-0.1-0.06-0.01-0.41-0.1-0.06-0.01-0.41-0.1-0.05-0.02-0.41-0.11-0.05-0.01-0.41-0.11-0.05-0.02-0.41-0.12-0.05-0.01-0.4-0.12-0.06-0.01-0.4-0.12-0.05-0.01-0.4-0.13-0.05-0.01-0.63-0.21-0.02-0.01-0.2-0.06-0.02-0.01-0.2-0.07-0.02-0.01-0.2-0.06-0.03-0.01-0.2-0.07-0.02-0.01-0.2-0.07-0.03-0.01-0.2-0.07-0.03-0.01-0.2-0.07-0.03-0.01-0.2-0.07-0.03-0.01-0.2-0.08-0.03-0.01-0.2-0.07-0.02-0.01-0.2-0.07-0.03-0.01-0.2-0.08-0.02-0.01-0.2-0.08-0.03-0.01-0.2-0.08-0.03-0.01-0.2-0.08-0.02-0.01-0.2-0.08-0.03-0.01-0.2-0.08-0.03-0.01-0.2-0.09-0.03-0.01-0.2-0.08-0.03-0.01-0.2-0.08-0.02-0.02-0.2-0.08-0.03-0.01-0.19-0.08-0.03-0.01-0.19-0.08-0.02-0.01-0.19-0.09-0.03-0.01-0.2-0.09-0.03-0.01-0.2-0.09-0.03-0.01-0.19-0.09-0.026-0.01-0.2-0.09-0.02-0.01-0.19-0.09-0.02-0.01-0.2-0.09-0.03-0.02-0.19-0.09-0.03-0.01-0.2-0.09-0.02-0.01-0.19-0.1-0.03-0.02-0.19-0.09-0.22-0.11-0.02-0.02-0.19-0.1-0.03-0.01-0.19-0.1-0.03-0.01-0.19-0.1-0.03-0.02-0.19-0.1-0.02-0.01-0.19-0.1-0.02-0.01-0.19-0.1-0.02-0.01-0.19-0.11-0.03-0.02-0.19-0.1-0.02-0.01-0.19-0.1-0.03-0.02-0.19-0.11-0.03-0.02-0.19-0.11-0.02-0.02-0.19-0.1-0.03-0.01-0.19-0.11-0.02-0.01-0.19-0.11-0.02-0.01-0.19-0.11-0.03-0.02-0.18-0.11-0.01-0.01-104.78-61.2-0.02-0.01-0.22-0.13-0.03-0.02-0.23-0.14-0.02-0.01-0.22-0.13-0.02-0.02-0.22-0.14-0.02-0.01-0.22-0.13-0.02-0.01-0.23-0.14-0.02-0.01-0.22-0.13-0.02-0.01-0.22-0.14-0.02-0.01-0.22-0.14-0.02-0.01-0.22-0.14-0.02-0.02-0.22-0.14-0.02-0.01-0.22-0.15-0.02-0.01-0.21-0.14-0.02-0.02-0.22-0.15-0.24-0.16-0.02-0.01-0.22-0.15-0.02-0.02-0.22-0.14-0.02-0.02-0.21-0.14-0.02-0.01-0.22-0.15-0.02-0.02-0.21-0.15-0.02-0.02-0.21-0.15-0.02-0.01-0.21-0.15-0.03-0.02-0.21-0.15-0.02-0.02-0.21-0.15-0.03-0.02-0.21-0.16-0.02-0.02-0.21-0.15-0.02-0.02-0.21-0.16-0.02-0.02-0.21-0.15-0.02-0.02-0.2-0.16-0.02-0.02-0.21-0.16-0.02-0.02-0.21-0.16-0.02-0.02-0.21-0.16-0.02-0.02-0.2-0.16-0.03-0.01-0.2-0.16-0.03-0.02-0.2-0.16-0.02-0.02-0.2-0.16-0.02-0.02-0.2-0.17-0.02-0.02-0.2-0.16-0.02-0.02-0.2-0.17-0.02-0.02-0.2-0.16-0.02-0.02-0.2-0.16-0.02-0.02-0.197-0.17-0.02-0.02-0.2-0.16-0.02-0.02-0.2-0.17-0.02-0.02-0.2-0.16-0.02-0.02-0.2-0.17-0.02-0.01-0.19-0.17-0.02-0.02-0.19-0.17-0.02-0.02-0.2-0.17-0.02-0.02-0.19-0.17-0.02-0.02-0.19-0.17-0.02-0.02-0.19-0.18-0.02-0.02-0.19-0.17-0.02-0.02-0.19-0.17-0.02-0.02-0.19-0.17-0.02-0.02-0.19-0.17-0.2-0.2-0.02-0.01-0.19-0.18-0.02-0.02-0.18-0.17-0.42-0.42-0.18-0.17-0.42-0.42-0.18-0.19-0.02-0.02-0.17-0.18-0.01-0.02-0.18-0.19-0.22-0.22-0.17-0.18-0.22-0.22-0.17-0.19-0.02-0.02-0.18-0.19-0.02-0.02-0.17-0.19-0.02-0.02-0.17-0.19-0.02-0.02-0.17-0.19-0.02-0.02-0.17-0.19-0.02-0.02-0.17-0.19-0.02-0.02-0.17-0.19-0.02-0.02-0.17-0.19-0.02-0.02-0.16-0.19-0.02-0.02-0.17-0.19-0.02-0.02-0.17-0.19-0.02-0.02-0.16-0.19-0.02-0.02-0.16-0.19-0.02-0.02-0.16-0.2-0.02-0.02-0.17-0.2-0.02-0.02-0.17-0.2-0.01-0.02-0.16-0.19-0.02-0.02-0.16-0.2-0.01-0.02-0.16-0.2-0.01-0.02-0.16-0.2-0.02-0.02-0.16-0.2-0.02-0.02-0.16-0.2-0.01-0.02-0.15-0.2-0.01-0.02-0.16-0.2-0.02-0.02-0.15-0.207-0.02-0.02-0.15-0.21-0.01-0.02-0.15-0.2-0.02-0.02-0.15-0.21-0.02-0.02-0.15-0.21-0.02-0.03-0.15-0.2-0.01-0.02-0.15-0.2-0.02-0.02-0.15-0.21-0.01-0.02-0.15-0.21-0.02-0.02-0.145-0.2-0.01-0.02-0.15-0.21-0.02-0.02-0.15-0.2-0.01-0.02-0.15-0.21-0.16-0.24-0.01-0.02-0.3-0.45-0.017-0.02-0.14-0.21-0.01-0.02-0.14-0.21-0.02-0.02-0.14-0.21-0.01-0.02-0.14-0.21-0.01-0.02-0.14-0.22-0.01-0.02-0.14-0.22-0.01-0.02-0.13-0.21-0.01-0.02-0.13-0.22-0.01-0.02-0.13-0.22-0.01-0.02-0.13-0.21-0.01-0.02-0.13-0.22-0.01-0.02-0.13-0.22-0.02-0.02-0.12-0.21-0.02-0.03-0.13-0.22-0.01-0.02-0.13-0.22-0.01-0.02-0.13-0.22-0.01-0.02-0.13-0.22-0.01-0.03-0.13-0.22-0.02-0.02-0.12-0.22-0.01-0.02-0.12-0.22-0.01-0.02-0.13-0.22-0.01-0.02-0.12-0.22-0.01-0.02-0.12-0.22-0.01-0.02-0.12-0.22-0.01-0.02-0.12-0.22-0.01-0.03-0.12-0.22-0.01-0.02-0.12-0.22-0.02-0.03-0.23-0.46-0.01-0.03-0.12-0.23-0.01-0.03-0.11-0.23-0.01-0.03-0.12-0.24-0.11-0.23-0.01-0.02-0.11-0.23-0.01-0.03-0.11-0.23-0.01-0.03-0.11-0.23-0.01-0.03-0.11-0.23-0.01-0.02-0.1-0.23-0.01-0.03-0.11-0.23-0.01-0.03-0.11-0.23-0.02-0.03-0.1-0.23-0.01-0.03-0.1-0.23-0.01-0.03-0.1-0.23-0.01-0.02-0.1-0.23-0.01-0.02-0.1-0.23-0.01-0.03-0.1-0.24-0.01-0.02-0.1-0.23-0.01-0.03-0.09-0.23-0.01-0.02-0.1-0.23-0.01-0.02-0.1-0.23-0.01-0.03-0.1-0.24-0.01-0.02-0.09-0.24-0.01-0.03-0.09-0.23-0.01-0.03-0.09-0.23-0.01-0.03-0.09-0.24-0.01-0.02-0.09-0.24-0.01-0.03-0.09-0.24-0.01-0.03-0.09-0.24-0.01-0.02-0.09-0.24-0.01-0.02-0.09-0.24-0.09-0.27-0.01-0.02-0.09-0.27-0.09-0.24-0.54-1.62v-0.03l-0.08-0.25v-0.03l-0.17-0.51-0.01-0.02-0.09-0.27-0.07-0.24-0.01-0.02-0.07-0.24-0.01-0.03-0.07-0.24-0.01-0.03-0.07-0.24-0.01-0.03-0.07-0.24-0.01-0.02-0.07-0.25-0.01-0.03-0.06-0.25-0.01-0.03-0.06-0.25-0.01-0.02-0.07-0.24-0.01-0.03-0.06-0.25v-0.03l-0.06-0.25v-0.03l-0.06-0.25-0.01-0.03-0.06-0.25-0.01-0.03-0.06-0.25-0.01-0.03-0.06-0.25-0.01-0.02-0.06-0.25v-0.03l-0.06-0.25-0.01-0.03-0.06-0.25-0.01-0.03-0.06-0.25-0.01-0.03-0.06-0.25-0.01-0.02-0.05-0.25-0.01-0.03-0.05-0.25v-0.03l-0.05-0.25-0.01-0.02-0.05-0.25-0.01-0.03-0.1-0.5-0.01-0.03-0.05-0.25-0.01-0.03-0.05-0.25v-0.03l-0.05-0.26v-0.03l-0.04-0.26-0.01-0.03-0.04-0.25v-0.03l-0.04-0.25-0.01-0.03-0.04-0.25-0.01-0.02-0.04-0.25v-0.03l-0.04-0.26v-0.02l-0.08-0.5-0.01-0.03-0.03-0.25v-0.03l-0.04-0.26-0.01-0.03-0.04-0.26-0.03-0.26-0.01-0.03-0.03-0.25v-0.02l-0.04-0.25-0.03-0.25v-0.03l-0.03-0.25v-0.03l-0.03-0.25-0.01-0.02-0.03-0.25v-0.03l-0.03-0.25v-0.03l-0.03-0.26v-0.03l-0.02-0.26v-0.028l-0.02-0.26v-0.02l-0.03-0.26-0.01-0.03-0.02-0.26-0.01-0.02-0.01-0.26v-0.03l-0.02-0.26v-0.03l-0.02-0.26v-0.02l-0.02-0.26v-0.03l-0.02-0.26v-0.03l-0.01-0.26v-0.03l-0.02-0.26v-0.03l-0.02-0.52v-0.023l-0.01-0.26-0.01-0.03v-0.29l-0.01-0.26v-0.02l-0.01-0.26v-0.03l-0.01-0.26v-0.03l-0.01-0.26v-121.77l0.01-0.3v-0.03l0.01-0.298v-0.027l0.01-0.3v-0.027l0.01-0.296v-0.027l0.01-0.3v-0.027l0.01-0.3v-0.028l0.01-0.298v-0.027l0.01-0.298v-0.03l0.01-0.297v-0.03l0.02-0.297v-0.027l0.01-0.3v-0.025l0.01-0.29v-0.02l0.01-0.29v-0.02l0.01-0.29v-0.03l0.02-0.3v-0.02l0.02-0.3v-0.02l0.02-0.3v-0.03l0.02-0.29v-0.03l0.03-0.29 0.01-0.03 0.02-0.3v-0.02l0.03-0.29v-0.03l0.03-0.29v-0.051l0.03-0.296v-0.026l0.03-0.295v-0.03l0.04-0.296v-0.03l0.04-0.3v-0.025l0.03-0.292 0.01-0.03 0.03-0.29 0.01-0.023 0.04-0.29v-0.03l0.04-0.29 0.01-0.027 0.04-0.297 0.01-0.027 0.04-0.29v-0.03l0.04-0.29v-0.03l0.04-0.29v-0.03l0.04-0.293v-0.028l0.05-0.29v-0.03l0.05-0.29 0.01-0.02 0.05-0.29 0.01-0.03 0.05-0.29v-0.03l0.05-0.29v-0.03l0.05-0.29v-0.026l0.05-0.29 0.01-0.03 0.05-0.29v-0.03l0.05-0.29 0.01-0.03 0.05-0.29 0.01-0.03 0.05-0.29 0.01-0.03 0.05-0.29v-0.029l0.05-0.29 0.01-0.02 0.06-0.29v-0.03l0.06-0.29 0.01-0.03 0.06-0.29 0.01-0.03 0.06-0.29v-0.03l0.06-0.28 0.01-0.03 0.06-0.29 0.01-0.03 0.07-0.29v-0.03l0.07-0.29v-0.03l0.07-0.28 0.01-0.03 0.07-0.29 0.01-0.02 0.07-0.28v-0.02l0.07-0.29 0.01-0.03 0.07-0.29 0.01-0.03 0.07-0.29v-0.03l0.07-0.29 0.01-0.03 0.08-0.29v-0.03l0.08-0.28 0.01-0.02 0.08-0.28 0.01-0.03 0.08-0.28v-0.02l0.08-0.28 0.01-0.03 0.08-0.28 0.01-0.03 0.08-0.28 0.01-0.02 0.08-0.28 0.01-0.03 0.08-0.28 0.01-0.02 0.09-0.28 0.01-0.03 0.08-0.28v-0.03l0.09-0.28 0.01-0.02 0.09-0.28v-0.02l0.09-0.28 0.01-0.02 0.09-0.28 0.01-0.02 0.09-0.28 0.1-0.3 0.01-0.02 0.09-0.27 0.01-0.02 0.1-0.27 0.01-0.03 0.1-0.28 0.01-0.03 0.1-0.27 0.01-0.03 0.1-0.28 0.01-0.02 0.1-0.28 0.01-0.03 0.1-0.28 0.01-0.03 0.1-0.27 0.01-0.02 0.1-0.28 0.01-0.02 0.1-0.28 0.01-0.02 0.11-0.27 0.01-0.03 0.11-0.27 0.01-0.03 0.11-0.27 0.01-0.03 0.11-0.27 0.01-0.03 0.11-0.27 0.01-0.03 0.11-0.27 0.01-0.02 0.11-0.27 0.01-0.03 0.11-0.27 0.01-0.03 0.12-0.27 0.01-0.02 0.11-0.26 0.01-0.02 0.12-0.26 0.01-0.03 0.11-0.26 0.01-0.03 0.12-0.27 0.01-0.02 0.12-0.26 0.01-0.03 0.12-0.26 0.02-0.02 0.12-0.26 0.01-0.02 0.12-0.26 0.01-0.03 0.12-0.26 0.01-0.02 0.12-0.27 0.01-0.02 0.13-0.27 0.14-0.28 0.01-0.03 0.12-0.26 0.01-0.02 0.12-0.26 0.01-0.03 0.41-0.82 0.02-0.02 0.14-0.26 0.02-0.02 0.14-0.28 0.14-0.26 0.01-0.03 0.27-0.54 0.02-0.03 0.13-0.25 0.14-0.28 0.01-0.03 0.14-0.26 0.01-0.03 0.14-0.25 0.01-0.02 0.14-0.25 0.01-0.03 0.15-0.26 0.01-0.02 0.14-0.25 0.01-0.02 0.15-0.25 0.01-0.03 0.15-0.26 0.01-0.02 0.15-0.25 0.01-0.03 0.15-0.25 0.01-0.02 0.15-0.25 0.02-0.02 0.15-0.25 0.01-0.02 0.15-0.25 0.02-0.03 0.15-0.25 0.01-0.02 0.15-0.25 0.01-0.02 0.15-0.25 0.02-0.02 0.15-0.24 0.02-0.02 0.16-0.25 0.01-0.02 0.15-0.25 0.01-0.02 0.16-0.25 0.015-0.02 0.15-0.25 0.02-0.02 0.16-0.24 0.01-0.02 0.16-0.24 0.02-0.02 0.16-0.24 0.02-0.02 0.16-0.24 0.01-0.02 0.16-0.24 0.02-0.02 0.16-0.24 0.01-0.02 0.16-0.24 0.01-0.02 0.16-0.24 0.01-0.02 0.17-0.24 0.02-0.02 0.16-0.24 0.01-0.02 0.17-0.23 0.01-0.02 0.17-0.23 0.01-0.02 0.17-0.24 0.01-0.02 0.17-0.23 0.01-0.02 0.17-0.24 0.02-0.02 0.17-0.23 0.02-0.02 0.17-0.23 0.02-0.02 0.18-0.23 0.01-0.02 0.17-0.23 0.01-0.02 0.17-0.23 0.02-0.02 0.18-0.23 0.02-0.02 0.17-0.23 0.02-0.02 0.18-0.23 0.01-0.02 0.18-0.23 0.02-0.02 0.18-0.23 0.02-0.02 0.19-0.23 0.02-0.02 0.18-0.23 0.01-0.02 0.18-0.22 0.02-0.02 0.18-0.23 0.02-0.02 0.18-0.23 0.01-0.02 0.19-0.23 0.02-0.02 0.18-0.22 0.02-0.02 0.19-0.22 0.02-0.02 0.19-0.22 0.02-0.02 0.19-0.22 0.01-0.02 0.19-0.22 0.02-0.02 0.19-0.22 0.02-0.02 0.19-0.22 0.02-0.02 0.19-0.22 0.01-0.02 0.19-0.22 0.02-0.02 0.19-0.21 0.02-0.02 0.2-0.22 0.02-0.02 0.19-0.22 0.02-0.02 0.2-0.22 0.02-0.02 0.2-0.22 0.01-0.02 0.23-0.23 0.2-0.21 0.02-0.02 0.2-0.21 0.02-0.02 0.2-0.21 0.71-0.71 0.21-0.2 0.02-0.02 0.2-0.21 0.01-0.02 0.23-0.23 0.21-0.2 0.02-0.02 0.21-0.2 0.02-0.02 0.21-0.2 0.02-0.02 0.21-0.2 0.02-0.02 0.22-0.2 0.02-0.02 0.21-0.2 0.02-0.02 0.21-0.2 0.02-0.02 0.22-0.2 0.02-0.02 0.22-0.2 0.02-0.02 0.22-0.2 0.02-0.02 0.22-0.2 0.02-0.02 0.22-0.19 0.02-0.02 0.22-0.19 0.02-0.02 0.22-0.19 0.02-0.02 0.22-0.19 0.02-0.02 0.22-0.19 0.02-0.02 0.23-0.19 0.02-0.02 0.22-0.19 0.02-0.02 0.22-0.2 0.02-0.02 0.23-0.19 0.02-0.02 0.23-0.19 0.02-0.01 0.23-0.18 0.02-0.02 0.23-0.19 0.02-0.02 0.23-0.19 0.02-0.02 0.23-0.19 0.02-0.02 0.23-0.19 0.02-0.02 0.23-0.18 0.02-0.01 0.23-0.18 0.02-0.02 0.24-0.18 0.02-0.02 0.237-0.18 0.02-0.02 0.24-0.18 0.03-0.02 0.24-0.18 0.02-0.02 0.24-0.18 0.02-0.02 0.24-0.18 0.02-0.02 0.24-0.18 0.03-0.01 0.24-0.18 0.02-0.01 0.24-0.18 0.02-0.02 0.24-0.17 0.02-0.02 0.25-0.17 0.03-0.01 0.24-0.17 0.02-0.02 0.24-0.17 0.02-0.01 0.24-0.17 0.02-0.02 0.24-0.17 0.02-0.02 0.24-0.17 0.02-0.01 0.25-0.17 0.02-0.01 0.24-0.17 0.02-0.01 0.24-0.17 0.02-0.01 0.25-0.17 0.02-0.02 0.25-0.17 0.03-0.01 0.25-0.16 0.03-0.02 0.25-0.16 0.03-0.01 0.25-0.16 0.03-0.01 0.25-0.16 0.02-0.02 0.26-0.16 0.03-0.01 0.25-0.16 0.02-0.02 0.25-0.15 0.01-0.01 96.154-59.3 0.01-0.01 0.22-0.13 0.02-0.02 0.22-0.13 0.03-0.01 0.22-0.14 0.02-0.01 0.23-0.13 0.03-0.01 0.22-0.13 0.03-0.02 0.22-0.13 0.02-0.02 0.23-0.13 0.02-0.01 0.22-0.13 0.03-0.02 0.22-0.13 0.02-0.01 0.23-0.13 0.03-0.01 0.22-0.13 0.02-0.02 0.224-0.12 0.03-0.01 0.22-0.12 0.03-0.01 0.23-0.12 0.03-0.02 0.23-0.12 0.02-0.01 0.23-0.12 0.02-0.01 0.23-0.12 0.02-0.02 0.23-0.11 0.03-0.02 0.23-0.12 0.02-0.01 0.23-0.11 0.02-0.02 0.22-0.11 0.03-0.02 0.23-0.11 0.03-0.01 0.23-0.12 0.03-0.01 0.23-0.11 0.03-0.01 0.23-0.11 0.03-0.01 0.23-0.11 0.03-0.01 0.23-0.11 0.02-0.01 0.23-0.11 0.03-0.01 0.23-0.11 0.03-0.01 0.23-0.1 0.03-0.01 0.23-0.11 0.03-0.01 0.23-0.1 0.03-0.01 0.23-0.1 0.03-0.01 0.23-0.1 0.03-0.01 0.23-0.1 0.02-0.01 0.23-0.1 0.02-0.01 0.24-0.1 0.03-0.01 0.23-0.1 0.03-0.01 0.23-0.09 0.03-0.01 0.24-0.1 0.03-0.01 0.23-0.1 0.03-0.01 0.24-0.09 0.03-0.01 0.24-0.09 0.03-0.01 0.23-0.09 0.03-0.01 0.24-0.09 0.025-0.01 0.23-0.09 0.02-0.01 0.24-0.09 0.03-0.01 0.24-0.09 0.03-0.01 0.24-0.09h0.03l0.78-0.26 0.02-0.01 0.78-0.26 0.02-0.01 0.27-0.09 0.24-0.07 0.02-0.01 0.24-0.08 0.02-0.01 0.24-0.07 0.03-0.01 0.24-0.07 0.3-0.1 0.24-0.07h0.02l0.24-0.07 0.03-0.01 0.24-0.07h0.03l0.24-0.07h0.03l0.24-0.07 0.03-0.01 0.24-0.07 0.02-0.01 0.24-0.07 0.03-0.01 0.24-0.07 0.03-0.01 0.24-0.06 0.03-0.01 0.24-0.07 0.03-0.01 0.24-0.06 0.03-0.01 0.24-0.06h0.03l0.24-0.06 0.03-6e-3 0.24-0.06 0.03-0.01 0.24-0.06 0.03-0.01 0.25-0.06 0.02-0.01 0.25-0.06 0.03-0.01 0.24-0.055 0.03-0.01 0.24-0.06 0.03-0.01 0.24-0.05 0.03-0.01 0.24-0.05 0.02-0.01 0.25-0.05h0.03l0.25-0.05h0.03l0.25-0.05h0.03l0.24-0.05 0.03-0.01 0.24-0.04 0.03-0.01 0.25-0.04 0.03-0.01 0.24-0.04h0.02l0.24-0.05 0.03-0.01 0.24-0.04h0.03l0.25-0.04 0.03-0.01 0.24-0.04 0.03-0.01 0.25-0.04 0.03-0.01 0.25-0.03h0.03l0.25-0.03h0.03l0.24-0.04h0.03l0.24-0.03h0.03l0.25-0.04h0.03l0.24-0.03h0.03l0.24-0.03h0.03l0.24-0.03h0.03l0.24-0.03h0.03l0.24-0.03h0.03l0.25-0.03h0.03l0.25-0.03h0.03l0.24-0.03h0.03l0.25-0.02h0.03l0.25-0.02h0.03l0.25-0.02h0.03l0.25-0.02h0.03l0.25-0.02h0.03l0.25-0.02h0.03l0.24-0.02h0.03l0.25-0.02h0.03l0.25-0.02h0.03l0.25-0.01h0.03l0.25-0.01h0.03l0.25-0.02h0.03l0.25-0.01h0.04l0.25-0.01h0.03l0.25-0.01h0.03l0.25-0.01h0.03l0.25-0.01h2zm-0.23 27h-0.163l-0.163 2e-3h-1.162l-0.164 0.01h-0.163l-0.166 0.01-0.34 0.02-0.16 0.01-1.36 0.08-0.16 0.01-0.34 0.04-0.16 0.02-0.16 0.01-0.17 0.02-0.16 0.02-0.51 0.06-0.32 0.04-0.17 0.02-0.16 0.02-0.17 0.03-0.16 0.02-0.32 0.06-0.16 0.02-0.96 0.18-0.17 0.03-0.16 0.03-0.16 0.04-0.16 0.03-0.16 0.04-0.16 0.03-0.17 0.04-0.16 0.04-0.16 0.03-1.12 0.28-0.15 0.04-0.32 0.08-0.96 0.3-0.15 0.05-0.16 0.05-0.15 0.05-0.64 0.2-0.3 0.12-0.32 0.1-0.15 0.06-0.16 0.06-0.15 0.05-0.16 0.06-0.3 0.12-0.16 0.07-0.15 0.06-0.16 0.06-0.15 0.06-0.16 0.06-0.16 0.07-0.16 0.06-1.5 0.7-0.3 0.16-0.15 0.07-2.1 1.12-0.15 0.09-0.15 0.08-0.15 0.09-0.14 0.09-0.15 0.09-0.16 0.1-96.119 59.271-0.19 0.12-0.19 0.11-0.18 0.12-0.18 0.11-1.44 0.96-0.18 0.13-0.17 0.12-0.18 0.13-0.17 0.12-0.17 0.13-0.18 0.12-0.17 0.12-0.36 0.26-1.36 1.04-0.17 0.135-0.16 0.136-0.16 0.13-0.17 0.13-0.17 0.14-0.17 0.13-1.12 0.98-0.16 0.15-0.48 0.42-0.15 0.15-0.32 0.28-0.15 0.14-0.32 0.3-0.16 0.14-0.15 0.14-1.5 1.5-0.14 0.16-0.14 0.15-0.3 0.32-0.14 0.16-0.14 0.15-1.12 1.28-0.13 0.16-0.14 0.16-0.13 0.17-0.39 0.48-0.14 0.17-0.26 0.32-0.65 0.85-0.13 0.16-0.13 0.17-0.24 0.34-0.13 0.17-0.12 0.17-0.12 0.18-0.6 0.85-0.72 1.08-0.11 0.18-0.12 0.17-0.12 0.18-0.11 0.17-0.99 1.62-0.1 0.19-0.11 0.18-0.11 0.19-0.2 0.38-0.11 0.18-0.1 0.18-0.1 0.19-0.2 0.36-0.2 0.38-0.09 0.19-0.2 0.38-0.09 0.19-0.09 0.18-0.09 0.19-0.1 0.19-0.45 0.95-0.08 0.2-0.18 0.38-0.08 0.19-0.16 0.4-0.08 0.19-0.08 0.2-0.09 0.2-0.16 0.38-0.08 0.2-0.08 0.19-0.32 0.8-0.07 0.2-0.08 0.2-0.84 2.4-0.12 0.4-0.068 0.21-0.12 0.4-0.06 0.21-0.18 0.6-0.056 0.21-0.12 0.42-0.05 0.2-0.06 0.2-0.056 0.21-0.06 0.21-0.1 0.42-0.05 0.2-0.2 0.84-0.043 0.21-0.2 1.05-0.05 0.21-0.16 0.84-0.03 0.21-0.08 0.42-0.03 0.21-0.04 0.21-0.03 0.21-0.04 0.21-0.06 0.44-0.18 1.26-0.024 0.22-0.02 0.21-0.03 0.22-0.04 0.42-0.02 0.22-0.02 0.21-0.02 0.22-0.02 0.21-0.02 0.22-0.04 0.42-0.04 0.44-0.01 0.22-0.01 0.21-0.04 0.88v0.22l-0.03 0.63v0.22l-6e-3 0.22v121.27l0.01 0.18v0.35l0.01 0.18v0.35l0.01 0.17 0.01 0.18 0.01 0.17 0.02 0.36 0.01 0.17 0.02 0.36 0.02 0.17 0.01 0.18 0.01 0.17 0.04 0.34 0.01 0.17 0.08 0.68 0.02 0.18 0.1 0.85 0.06 0.34 0.02 0.17 0.06 0.34 0.02 0.18 0.24 1.36 0.033 0.17 0.04 0.17 0.03 0.17 0.08 0.34 0.035 0.17 0.2 0.85 0.04 0.16 0.04 0.17 0.045 0.17 0.04 0.17 0.05 0.17 0.04 0.16 0.05 0.17 0.05 0.16 0.045 0.17 0.1 0.32 0.04 0.17 0.05 0.17 0.05 0.16 0.1 0.34 0.05 0.16 0.06 0.16 0.05 0.17 0.15 0.48 0.06 0.17 0.36 0.96 0.06 0.17 0.18 0.48 0.06 0.17 0.068 0.16 0.065 0.16 0.35 0.8 0.06 0.16 0.42 0.96 0.07 0.15 0.07 0.16 0.14 0.3 0.08 0.15 0.16 0.32 0.08 0.15 0.07 0.15 0.8 1.5 0.09 0.15 0.08 0.15 0.27 0.45 0.09 0.14 0.09 0.15 0.09 0.14 0.45 0.75 0.1 0.14 0.18 0.3 0.095 0.14 0.09 0.14 0.1 0.14 0.09 0.15 0.09 0.14 0.1 0.14 0.094 0.15 0.1 0.14 0.09 0.14 0.1 0.14 0.09 0.14 0.4 0.56 0.104 0.14 0.1 0.14 0.11 0.14 0.1 0.13 0.2 0.28 0.22 0.28 0.11 0.13 0.33 0.42 0.22 0.26 0.1 0.14 0.12 0.13 0.55 0.65 0.36 0.39 0.12 0.12 0.24 0.26 0.11 0.13 0.24 0.24 0.24 0.26 0.48 0.48 0.12 0.13 0.37 0.37 0.13 0.12 0.12 0.12 0.26 0.24 0.12 0.12 0.13 0.12 0.13 0.11 0.13 0.12 0.13 0.11 0.26 0.24 0.26 0.22 0.13 0.12 0.13 0.11 0.26 0.24 0.13 0.11 0.28 0.22 0.13 0.11 1.12 0.88 0.13 0.1 0.14 0.1 0.14 0.11 0.42 0.3 0.14 0.11 0.42 0.3 0.14 0.11 0.28 0.2 0.3 0.2 0.42 0.3 0.15 0.09 0.15 0.1 0.14 0.1 0.15 0.1 0.15 0.09 0.3 0.2 0.45 0.27 0.15 0.1 0.15 0.09 0.16 0.1 104.69 61.19 0.13 0.07 0.24 0.14 0.12 0.06 0.11 0.07 0.22 0.12 0.12 0.07 0.96 0.48 0.12 0.05 0.12 0.06 0.12 0.05 0.36 0.18 0.12 0.05 0.12 0.06 0.24 0.1 0.12 0.06 0.24 0.1 0.12 0.06 0.96 0.4 0.13 0.05 0.12 0.04 0.13 0.05 0.24 0.08 0.12 0.05 0.24 0.08 0.12 0.05 0.24 0.08 0.13 0.04 0.12 0.04 0.11 0.04 0.26 0.08 0.5 0.16 0.75 0.21 0.25 0.06 0.25 0.07 1 0.24 0.25 0.05 0.26 0.05 0.75 0.15 0.25 0.04 1.04 0.16 0.26 0.03 0.25 0.03 0.52 0.06 0.26 0.02 0.25 0.02 0.26 0.03 0.52 0.04 0.25 0.02 0.5 0.02 0.78 0.03h0.78l0.26-0.01h0.26l0.52-0.02 0.25-0.01 1.56-0.12 0.26-0.03 0.25-0.03 0.26-0.03 0.25-0.03 0.52-0.06 0.25-0.04 0.26-0.04 0.25-0.04 0.5-0.1 0.25-0.04 0.26-0.05 0.5-0.1 0.26-0.06 0.25-0.06 0.26-0.06 0.25-0.06 1-0.28 0.25-0.08 0.26-0.08 0.11-0.03 0.13-0.04 0.36-0.12 0.13-0.04 0.36-0.12 0.13-0.05 0.12-0.05 0.12-0.04 0.13-0.04 0.36-0.12 0.24-0.1 0.12-0.04 0.6-0.25 0.13-0.05 0.24-0.1 0.12-0.06 0.48-0.2 0.24-0.12 0.48-0.2 0.12-0.06 0.11-0.06 0.36-0.18 0.11-0.06 0.24-0.12 0.12-0.07 0.11-0.06 0.12-0.06 0.11-0.07 0.12-0.07 0.13-0.07 115.92-64.56 0.14-0.07 0.24-0.14 0.13-0.07 0.12-0.07 0.24-0.16 0.36-0.21 0.12-0.08 0.12-0.07 0.12-0.08 0.12-0.07 0.24-0.16 0.11-0.08 0.48-0.32 0.22-0.16 0.36-0.24 0.66-0.48 0.11-0.09 0.44-0.32 0.44-0.36 0.11-0.08 0.22-0.18 0.1-0.08 0.2-0.18 0.11-0.09 0.6-0.54 0.1-0.1 0.1-0.09 0.1-0.1 0.3-0.27 0.2-0.2 0.1-0.09 0.49-0.49 0.27-0.3 0.1-0.1 0.63-0.7 0.1-0.1 0.81-0.9 0.08-0.11 0.09-0.11 0.08-0.1 0.09-0.11 0.96-1.32 0.08-0.12 0.4-0.55 0.08-0.12 0.32-0.44 0.07-0.12 0.07-0.11 0.07-0.12 0.07-0.11 0.14-0.24 0.08-0.12 0.07-0.12 0.07-0.11 0.28-0.48 0.06-0.12 0.56-0.96 0.06-0.12 0.14-0.24 0.36-0.72 0.06-0.13 0.06-0.12 0.05-0.13 0.06-0.12 0.06-0.13 0.05-0.12 0.06-0.12 0.05-0.12 0.06-0.12 0.06-0.13 0.05-0.12 0.12-0.26 0.25-0.65 0.06-0.13 0.05-0.13 0.05-0.12 0.2-0.52 0.05-0.12 0.04-0.13 0.05-0.12 0.1-0.26 0.12-0.39 0.05-0.13 0.04-0.13 0.05-0.13 0.04-0.12 0.2-0.65 0.04-0.14 0.08-0.26 0.03-0.13 0.04-0.13 0.03-0.13 0.04-0.13 0.03-0.14 0.04-0.13 0.15-0.65 0.03-0.14 0.12-0.52 0.09-0.42 0.02-0.14 0.09-0.39 0.03-0.14 0.12-0.84 0.02-0.13 0.08-0.56 0.01-0.13 0.01-0.14 0.02-0.14 0.02-0.13 0.02-0.14 0.04-0.56 0.02-0.14 0.01-0.14 0.01-0.13 0.05-0.7v-0.14l0.04-0.56v-0.83l0.01-0.16v-136.84l-0.01-0.14v-0.507l-0.01-0.13-0.02-0.25v-0.255l-0.01-0.128v-0.252l-0.01-0.11-0.02-0.268-0.04-0.5-0.03-0.254-0.02-0.25-0.03-0.25-0.03-0.248-0.03-0.25-0.06-0.496-0.08-0.496-0.04-0.25-0.04-0.245-0.04-0.24-0.05-0.24-0.04-0.24-0.15-0.72-0.36-1.44-0.14-0.46-0.14-0.48-0.08-0.23-0.07-0.23-0.08-0.24-0.24-0.69-0.45-1.15-0.09-0.22-0.1-0.23-0.3-0.66-0.11-0.22-0.1-0.22-0.44-0.88-0.12-0.21-0.12-0.22-0.11-0.22-0.36-0.63-0.13-0.21-0.12-0.21-0.26-0.42-0.13-0.2-0.14-0.2-0.14-0.21-0.26-0.4-0.28-0.4-0.15-0.2-0.14-0.2-0.15-0.19-0.15-0.2-0.15-0.19-0.15-0.2-0.32-0.38-0.15-0.19-0.32-0.38-0.16-0.18-0.17-0.18-0.34-0.38-0.51-0.54-0.18-0.18-0.18-0.17-0.17-0.18-0.9-0.85-0.19-0.17-0.36-0.34-0.76-0.64-0.2-0.16-0.19-0.16-0.19-0.15-0.8-0.6-0.42-0.28-0.2-0.14-0.21-0.14-0.22-0.15-0.2-0.14-0.22-0.14-0.1-0.07-0.33-0.21-0.22-0.12-0.11-0.07-0.1-0.07-0.11-0.07-0.13-0.07-113.4-66.79-0.16-0.09-0.15-0.09-0.3-0.16-0.28-0.16-1.05-0.56-0.6-0.28-0.15-0.08-0.15-0.07-0.15-0.08-0.15-0.07-0.15-0.08-0.9-0.42-0.16-0.07-0.3-0.14-0.16-0.07-0.15-0.07-0.15-0.06-0.15-0.07-1.2-0.48-0.32-0.12-0.15-0.05-0.16-0.06-0.15-0.06-0.32-0.1-0.16-0.06-0.16-0.05-0.3-0.1-0.16-0.05-0.15-0.05-0.48-0.15-0.8-0.2-0.16-0.05-0.64-0.16-0.16-0.03-0.8-0.2-0.16-0.03-0.32-0.08-0.17-0.03-1.28-0.24-0.34-0.06-0.16-0.03-0.32-0.04-0.16-0.03-0.16-0.02-0.16-0.03-0.17-0.02-0.64-0.08-0.16-0.01-0.17-0.02-0.16-0.02-0.17-0.01-0.16-0.02-0.17-0.01-0.32-0.02-0.17-0.01-0.16-0.02-0.48-0.03-0.17-0.01-0.16-0.01h-0.16l-0.17-0.01h-0.4l-0.32-0.02-0.17-0.01h-0.65z" fill="#0083c0"/>
 <path d="m202.82 128.1c-37.72 0-61.295 17.858-70.725 53.575 14.145-17.858 30.648-24.555 49.508-20.09 10.761 2.5448 18.451 9.9411 26.965 18.121 13.867 13.329 29.919 28.757 64.978 28.757 37.72 0 61.295-17.858 70.725-53.575-14.145 17.858-30.648 24.555-49.508 20.09-10.761-2.5448-18.451-9.9411-26.965-18.121-13.867-13.329-29.919-28.757-64.978-28.757zm-70.725 80.362c-37.72 0-61.295 17.858-70.725 53.575 14.145-17.858 30.648-24.555 49.508-20.09 10.761 2.5498 18.451 9.9411 26.965 18.121 13.867 13.329 29.919 28.757 64.978 28.757 37.72 0 61.295-17.858 70.725-53.575-14.145 17.858-30.648 24.555-49.508 20.09-10.761-2.5448-18.451-9.9411-26.965-18.121-13.867-13.329-29.919-28.757-64.978-28.757z" clip-path="url(#clipPath13)" clip-rule="evenodd" fill="#fff" fill-rule="evenodd" stroke-width="5.0979"/>
</svg>
